<?xml version="1.0" encoding="utf-8"?>
<!-- Generator: Adobe Illustrator 25.2.3, SVG Export Plug-In . SVG Version: 6.00 Build 0)  -->
<svg version="1.1" id="Capa_1" xmlns="http://www.w3.org/2000/svg" xmlns:xlink="http://www.w3.org/1999/xlink" x="0px" y="0px"
	 viewBox="0 0 240.6 74.6" style="enable-background:new 0 0 240.6 74.6;" xml:space="preserve">
<style type="text/css">
	.st0{fill:#FFFFFF;}
	.st1{fill:#1A1478;}
	.st2{fill:url(#SVGID_1_);}
	.st3{fill:url(#SVGID_2_);}
	.st4{fill:url(#SVGID_3_);}
	.st5{fill:url(#SVGID_4_);}
	.st6{fill:url(#SVGID_5_);}
	.st7{fill:url(#SVGID_6_);}
	.st8{fill:url(#SVGID_7_);}
	.st9{fill:url(#SVGID_8_);}
</style>
<g>
	<path class="st0" d="M83.6,57.3v-2.5h5.7v19.2h-5.7v-2.5c-0.6,1.7-2.8,2.9-5.7,2.9c-2.7,0-5-1-6.8-2.9c-1.8-1.9-2.7-4.3-2.7-7.1
		c0-2.8,0.9-5.1,2.7-7.1c1.8-1.9,4.1-2.9,6.8-2.9C80.8,54.5,83,55.7,83.6,57.3z M82.4,67.9c1-1,1.5-2.1,1.5-3.4S83.4,62,82.4,61
		c-1-1-2.1-1.4-3.5-1.4c-1.4,0-2.5,0.5-3.5,1.4c-1,0.9-1.4,2.1-1.4,3.4s0.5,2.5,1.4,3.4c1,0.9,2.1,1.4,3.5,1.4
		C80.3,69.2,81.5,68.8,82.4,67.9z"/>
	<path class="st0" d="M93,74.1V54.8h5.7v2.4c0.7-1.7,2.7-2.8,5-2.8c2.6,0,4.3,1,5.2,3.1c1.1-2,3.2-3.1,6.4-3.1c4.4,0,6.8,3,6.8,8
		v11.7h-5.7v-11c0-2.2-1-3.6-2.9-3.6c-1.9,0-3.2,1.6-3.2,3.8v10.8h-5.7v-11c0-2.2-1-3.6-2.9-3.6c-1.8,0-3.2,1.6-3.2,3.8v10.8H93z"/>
	<path class="st0" d="M140.2,57.3v-2.5h5.7v19.2h-5.7v-2.5c-0.6,1.7-2.8,2.9-5.7,2.9c-2.7,0-5-1-6.8-2.9c-1.8-1.9-2.7-4.3-2.7-7.1
		c0-2.8,0.9-5.1,2.7-7.1c1.8-1.9,4.1-2.9,6.8-2.9C137.4,54.5,139.6,55.7,140.2,57.3z M139.1,67.9c1-1,1.5-2.1,1.5-3.4
		S140,62,139.1,61c-1-1-2.1-1.4-3.5-1.4c-1.4,0-2.5,0.5-3.5,1.4c-1,0.9-1.4,2.1-1.4,3.4s0.5,2.5,1.4,3.4c1,0.9,2.1,1.4,3.5,1.4
		C136.9,69.2,138.1,68.8,139.1,67.9z"/>
	<path class="st0" d="M149.7,74.1V47.5h5.7v26.6H149.7z"/>
	<path class="st0" d="M201.2,57.2c2.1,1.9,3.1,4.3,3.1,7.2c0,2.9-1,5.3-3.1,7.2c-2.1,1.9-4.6,2.9-7.6,2.9c-3,0-5.5-1-7.6-2.9
		c-2.1-2-3.1-4.4-3.1-7.2c0-2.9,1-5.3,3.1-7.2c2.1-2,4.6-3,7.6-3C196.6,54.3,199.1,55.3,201.2,57.2z M190.1,68c1,1,2.1,1.4,3.5,1.4
		s2.6-0.5,3.5-1.4c1-1,1.4-2.2,1.4-3.6s-0.5-2.6-1.4-3.5c-1-1-2.1-1.5-3.5-1.5s-2.6,0.5-3.5,1.5c-1,1-1.4,2.1-1.4,3.5
		S189.2,67.1,190.1,68z"/>
	<path class="st0" d="M207.3,74.1V54.8h5.7v2.4c0.8-1.7,3-2.8,5.6-2.8c4.7,0,7.4,3,7.4,8v11.7h-5.7v-11c0-2.2-1.3-3.6-3.5-3.6
		c-2.2,0-3.8,1.6-3.8,3.8v10.8H207.3z"/>
	<path class="st0" d="M179.8,62.6c-0.4-2.1-1.3-3.9-3-5.4c-2.1-2-4.6-3-7.6-3c-3,0-5.5,1-7.6,3c-2.1,1.9-3.1,4.3-3.1,7.2
		c0,2.9,1,5.3,3.1,7.2c2.1,1.9,4.6,2.9,7.6,2.9c2.2,0,4.2-0.6,6-1.7l-3.9-3.9c-0.6,0.3-1.3,0.4-2.1,0.4c-1.4,0-2.6-0.5-3.5-1.4
		c-0.1-0.1-0.2-0.2-0.3-0.3h11.8h2.3c0.3-1,0.5-2.1,0.5-3.2C180,63.8,179.9,63.2,179.8,62.6z M164.6,62.6c0.2-0.6,0.6-1.2,1.1-1.7
		c1-1,2.1-1.5,3.5-1.5c1.4,0,2.6,0.5,3.5,1.5c0.5,0.5,0.9,1.1,1.1,1.7H164.6z"/>
	<path class="st0" d="M236.4,67.5V60h4.2v-5.1h-4.2v-7.4h-5.5v7.4h-2.6V60h2.6v8.5c0,3.1,2.5,5.5,5.5,5.5l0,0h4.2v-5.3h-3
		C237,68.8,236.4,68.2,236.4,67.5z"/>
	<polygon class="st1" points="56,65.5 56,65.5 62.1,74.1 	"/>
	<polygon class="st0" points="62.1,74.1 68.6,74.1 61.5,64.1 68.1,54.8 61.7,54.8 55.1,64.2 56,65.5 56,65.5 	"/>
	<linearGradient id="SVGID_1_" gradientUnits="userSpaceOnUse" x1="50.4702" y1="74.3947" x2="50.4702" y2="47.8166">
		<stop  offset="0.2771" style="stop-color:#1A1478"/>
		<stop  offset="1" style="stop-color:#3AE9FC"/>
	</linearGradient>
	<rect x="47.6" y="47.8" class="st2" width="5.7" height="26.6"/>
	<linearGradient id="SVGID_2_" gradientUnits="userSpaceOnUse" x1="50.1177" y1="1.889" x2="11.8786" y2="63.0044">
		<stop  offset="0.2771" style="stop-color:#1A1478"/>
		<stop  offset="1" style="stop-color:#3AE9FC"/>
	</linearGradient>
	<path class="st3" d="M31.5,11.6c3.2,0,6.2,0.5,9.1,1.4l1.6,9c-1.9-0.4-3.8-0.6-5.8-0.6c-14.7,0-26.6,11.9-26.6,26.6
		c0,14.1,11,25.6,24.9,26.5c-1,0.1-2.1,0.2-3.2,0.2C14.1,74.6,0,60.5,0,43.1C0,25.7,14.1,11.6,31.5,11.6z"/>
	
		<linearGradient id="SVGID_3_" gradientUnits="userSpaceOnUse" x1="-1987.2307" y1="74.6235" x2="-1987.2307" y2="11.6022" gradientTransform="matrix(-1 0 0 1 -1960.2684 0)">
		<stop  offset="0" style="stop-color:#FFFFFF"/>
		<stop  offset="1" style="stop-color:#000000"/>
	</linearGradient>
	<path class="st4" d="M9.8,47.9c0-14.7,11.9-26.6,26.6-26.6c2,0,4,0.2,5.8,0.6l1.8,10.2c-1.1-0.2-2.3-0.3-3.5-0.3
		c-11.8,0-21.4,9.6-21.4,21.4c0,10.4,7.4,19,17.3,21c-0.6,0.1-1.2,0.2-1.8,0.2C20.8,73.6,9.8,62,9.8,47.9z"/>
	<linearGradient id="SVGID_4_" gradientUnits="userSpaceOnUse" x1="67.6551" y1="13.8757" x2="27.1732" y2="61.198">
		<stop  offset="0.2771" style="stop-color:#1A1478"/>
		<stop  offset="1" style="stop-color:#3AE9FC"/>
	</linearGradient>
	<path class="st5" d="M19.2,53.3c0-11.7,9.5-21.2,21.2-21.3c0.4,0.1,0.9,0.2,1.3,0.3l1.3,8.2c-0.8-0.2-1.6-0.2-2.5-0.2
		c-8.3,0-15,7.7-15,17.1c0,8.3,5.2,15.3,12.1,16.8l-1.2,0.2C26.6,72.3,19.2,63.7,19.2,53.3z"/>
	<linearGradient id="SVGID_5_" gradientUnits="userSpaceOnUse" x1="56.4394" y1="4.0601" x2="18.4245" y2="64.839">
		<stop  offset="0.2771" style="stop-color:#1A1478"/>
		<stop  offset="1" style="stop-color:#3AE9FC"/>
	</linearGradient>
	<path class="st6" d="M36.4,21.3c2,0,4,0.2,5.8,0.6l1.8,10.2c-1.1-0.2-2.3-0.3-3.5-0.3c-0.1,0-0.1,0-0.2,0
		C28.7,32,19.2,41.5,19.2,53.3c0,10.4,7.4,19,17.2,21c0,0,0,0,0,0c-0.6,0.1-1.2,0.2-1.8,0.2C20.8,73.6,9.8,62,9.8,47.9
		C9.8,33.2,21.7,21.3,36.4,21.3z"/>
	<linearGradient id="SVGID_6_" gradientUnits="userSpaceOnUse" x1="26.1792" y1="40.4262" x2="68.6796" y2="21.3627">
		<stop  offset="0" style="stop-color:#3AE9FC"/>
		<stop  offset="1" style="stop-color:#1A1478"/>
	</linearGradient>
	<path class="st7" d="M52.6,29c-7.4-2.2-14.1-1.8-19.7-0.4c0,0,0-0.1,0-0.1V14.2c7.3-0.4,17.3,0.8,26.4,8.1
		c8.6,6.9,12.3,16,13.7,20.4h0C70,39.2,63.1,32.2,52.6,29z"/>
	<linearGradient id="SVGID_7_" gradientUnits="userSpaceOnUse" x1="37.7806" y1="48.802" x2="63.7966" y2="26.1501">
		<stop  offset="0" style="stop-color:#3AE9FC"/>
		<stop  offset="1" style="stop-color:#1A1478"/>
	</linearGradient>
	<path class="st8" d="M32.8,28.6c5.6-1.4,12.4-1.8,19.7,0.4C63.1,32.2,70,39.2,73,42.7H47C39.2,42.7,32.9,36.4,32.8,28.6z"/>
	<linearGradient id="SVGID_8_" gradientUnits="userSpaceOnUse" x1="42.839" y1="43.5536" x2="56.146" y2="-1.0027">
		<stop  offset="0.2771" style="stop-color:#1A1478"/>
		<stop  offset="1" style="stop-color:#3AE9FC"/>
	</linearGradient>
	<path class="st9" d="M56.8,22.4c-8-5.5-16.7-7.5-24.2-8c-3.8-0.2-6.8-3.4-6.8-7.2V0c2.9,0.1,25.5,1.1,38.8,18.5
		c7.4,9.6,8.3,19.7,8.4,24.2h-0.1C71.2,38.3,66.9,29.3,56.8,22.4z"/>
</g>
</svg>
